<svg xmlns="http://www.w3.org/2000/svg" width="71" height="57" viewBox="0 0 71 57">
  <g id="Group_363" data-name="Group 363" transform="translate(-296 -305)">
    <circle id="Ellipse_9" data-name="Ellipse 9" cx="28.5" cy="28.5" r="28.5" transform="translate(296 305)" fill="#ec1313"/>
    <text id="SOS" transform="translate(310 335)" fill="#fff" font-size="15" font-family="Raleway-Medium, Raleway" font-weight="500"><tspan x="0" y="14">SOS</tspan></text>
    <path id="Icon_awesome-plus" data-name="Icon awesome-plus" d="M20.166,10.782h-6.98V3.8A1.551,1.551,0,0,0,11.634,2.25H10.083A1.551,1.551,0,0,0,8.532,3.8v6.98H1.551A1.551,1.551,0,0,0,0,12.333v1.551a1.551,1.551,0,0,0,1.551,1.551h6.98v6.98a1.551,1.551,0,0,0,1.551,1.551h1.551a1.551,1.551,0,0,0,1.551-1.551v-6.98h6.98a1.551,1.551,0,0,0,1.551-1.551V12.333A1.551,1.551,0,0,0,20.166,10.782Z" transform="translate(313 311.033)" fill="#fff"/>
  </g>
</svg>
